<svg xmlns="http://www.w3.org/2000/svg" xmlns:xlink="http://www.w3.org/1999/xlink" viewBox="0 0 896.53 715.32"><defs><style>.cls-1,.cls-8{fill:none;}.cls-2{clip-path:url(#clip-path);}.cls-3{fill:#61d2ff;}.cls-4{font-size:14.78px;}.cls-4,.cls-5,.cls-7{fill:#fff;font-family:Calibri-Light, Calibri;font-weight:300;}.cls-5{font-size:12.81px;}.cls-6{font-family:MyriadPro-Regular, Myriad Pro;font-weight:400;}.cls-7{font-size:13px;}.cls-8{stroke:#b1d2ff;stroke-miterlimit:10;}</style><clipPath id="clip-path" transform="translate(-461.29 -251.22)"><rect class="cls-1" width="1891.63" height="1064.04"/></clipPath></defs><title>Asset 3</title><g id="Layer_2" data-name="Layer 2"><g id="Layer_1-2" data-name="Layer 1"><g class="cls-2"><path class="cls-3" d="M947.26,300.87a49.66,49.66,0,1,1-49.66-49.65,49.66,49.66,0,0,1,49.66,49.65" transform="translate(-461.29 -251.22)"/></g><text class="cls-4" transform="translate(399.1 53.6)">Management</text><g class="cls-2"><path class="cls-3" d="M570.66,458.25A49.66,49.66,0,1,1,521,408.6a49.66,49.66,0,0,1,49.66,49.65" transform="translate(-461.29 -251.22)"/></g><text class="cls-4" transform="translate(47.79 201.72)">HSE</text><text class="cls-4" transform="translate(23.2 219.45)">Department</text><g class="cls-2"><path class="cls-3" d="M1131.23,458.25a49.66,49.66,0,1,1-49.66-49.65,49.66,49.66,0,0,1,49.66,49.65" transform="translate(-461.29 -251.22)"/></g><text class="cls-4" transform="translate(598.68 204.78)">QA/QC</text><text class="cls-4" transform="translate(585.82 222.51)">Depatment</text><g class="cls-2"><path class="cls-3" d="M566.47,609.94a49.66,49.66,0,1,1-49.66-49.66,49.65,49.65,0,0,1,49.66,49.66" transform="translate(-461.29 -251.22)"/></g><text class="cls-5" transform="translate(24.12 337.56)">Commercial</text><text class="cls-5" transform="translate(50.57 352.92)">&amp;</text><text class="cls-5" transform="translate(32.77 368.29)">Business</text><text class="cls-5" transform="translate(20.24 383.66)">Developemnt</text><g class="cls-2"><path class="cls-3" d="M947.26,458.25A49.66,49.66,0,1,1,897.6,408.6a49.66,49.66,0,0,1,49.66,49.65" transform="translate(-461.29 -251.22)"/></g><text class="cls-4" transform="translate(413.33 195.78)">Finance</text><text class="cls-4" transform="translate(431.36 213.52)">&amp;</text><text class="cls-4" transform="translate(409.2 231.25)">Accounts</text><g class="cls-2"><path class="cls-3" d="M1057.31,609.94a49.66,49.66,0,1,1-49.65-49.66,49.65,49.65,0,0,1,49.65,49.66" transform="translate(-461.29 -251.22)"/></g><text class="cls-5" transform="translate(533.01 336.65)">Sales</text><text class="cls-5" transform="translate(541.69 352.02)">&amp;</text><text class="cls-5" transform="translate(512.44 367.39)">Procurement</text><text class="cls-5" transform="translate(514.68 382.76)">Department</text><g class="cls-2"><path class="cls-3" d="M744.52,458.25a49.66,49.66,0,1,1-49.66-49.65,49.66,49.66,0,0,1,49.66,49.65" transform="translate(-461.29 -251.22)"/></g><text class="cls-4" transform="translate(189.53 197.78)">Administrat<tspan class="cls-6" x="68.64" y="0">i</tspan><tspan x="72.09" y="0">on</tspan></text><text class="cls-4" transform="translate(207.87 215.51)">Personal</text><text class="cls-4" transform="translate(195.59 233.24)">Omanisat<tspan class="cls-6" x="56.49" y="0">i</tspan><tspan x="59.95" y="0">on</tspan></text><g class="cls-2"><path class="cls-3" d="M1323.85,458.25a49.66,49.66,0,1,1-49.65-49.65,49.65,49.65,0,0,1,49.65,49.65" transform="translate(-461.29 -251.22)"/></g><text class="cls-7" transform="translate(818.37 200.51)">Plant</text><text class="cls-7" transform="translate(797.34 216.11)">&amp; Equipment</text><text class="cls-7" transform="translate(797.23 231.71)">Maintenance</text><g class="cls-2"><path class="cls-3" d="M828.27,611.31a49.66,49.66,0,1,1-49.66-49.65,49.66,49.66,0,0,1,49.66,49.65" transform="translate(-461.29 -251.22)"/></g><text class="cls-5" transform="translate(301.88 345.91)">Stores</text><text class="cls-5" transform="translate(313.63 361.28)">&amp;</text><text class="cls-5" transform="translate(279.88 376.65)">Local purchase</text><g class="cls-2"><path class="cls-3" d="M1328.2,609.94a49.66,49.66,0,1,1-49.66-49.66,49.65,49.65,0,0,1,49.66,49.66" transform="translate(-461.29 -251.22)"/></g><text class="cls-7" transform="translate(797.34 352.02)">Contacts</text><text class="cls-7" transform="translate(788.83 367.39)">Department</text><g class="cls-2"><path class="cls-3" d="M759.12,761.83a49.66,49.66,0,1,1-49.65-49.66,49.65,49.65,0,0,1,49.65,49.66" transform="translate(-461.29 -251.22)"/></g><text class="cls-5" transform="translate(225.21 496.42)">Technical</text><text class="cls-5" transform="translate(235.8 511.79)">Sales</text><text class="cls-5" transform="translate(209.71 527.16)">Representa<tspan class="cls-6" x="57.89" y="0">ti</tspan><tspan x="65.12" y="0">on</tspan></text><g class="cls-2"><path class="cls-3" d="M929.52,760a49.66,49.66,0,1,1-49.65-49.65A49.65,49.65,0,0,1,929.52,760" transform="translate(-461.29 -251.22)"/></g><text class="cls-4" transform="translate(396.64 503.42)">Project </text><text class="cls-4" transform="translate(380.47 521.16)">Procurement</text><g class="cls-2"><path class="cls-3" d="M560.6,913.91a49.66,49.66,0,1,1-49.66-49.65,49.66,49.66,0,0,1,49.66,49.65" transform="translate(-461.29 -251.22)"/></g><text class="cls-4" transform="translate(38.93 657.38)">EPC</text><text class="cls-4" transform="translate(21.93 675.11)">Contracts</text><g class="cls-2"><path class="cls-3" d="M709.6,914.93A49.66,49.66,0,1,1,660,865.27a49.65,49.65,0,0,1,49.65,49.66" transform="translate(-461.29 -251.22)"/></g><text class="cls-4" transform="translate(177.02 641.64)">CMEI &amp;</text><text class="cls-4" transform="translate(175.63 659.38)">Pipeline</text><text class="cls-4" transform="translate(158.34 677.11)">Construct<tspan class="cls-6" x="57.6" y="0">i</tspan><tspan x="61.06" y="0">ons</tspan></text><text class="cls-4" transform="translate(170.94 694.84)">Contracts</text><g class="cls-2"><path class="cls-3" d="M876.49,916.88a49.66,49.66,0,1,1-49.66-49.65,49.66,49.66,0,0,1,49.66,49.65" transform="translate(-461.29 -251.22)"/></g><text class="cls-5" transform="translate(347.45 641.63)">Road &amp;</text><text class="cls-5" transform="translate(350.43 657)">Heavy</text><text class="cls-5" transform="translate(355.66 672.37)">Civil</text><text class="cls-5" transform="translate(330.68 687.73)">Construc<tspan class="cls-6" x="45.71" y="0">ti</tspan><tspan x="52.95" y="0">ons</tspan></text><g class="cls-2"><path class="cls-3" d="M1043.38,915.45a49.66,49.66,0,1,1-49.66-49.65,49.66,49.66,0,0,1,49.66,49.65" transform="translate(-461.29 -251.22)"/></g><text class="cls-5" transform="translate(497.68 659.9)">Infrastructure</text><text class="cls-5" transform="translate(512.48 675.27)">Projects</text><g class="cls-2"><path class="cls-3" d="M1357.82,914.57a49.66,49.66,0,1,1-49.66-49.65,49.66,49.66,0,0,1,49.66,49.65" transform="translate(-461.29 -251.22)"/></g><text class="cls-7" transform="translate(810.4 657.38)">Environmental </text><text class="cls-7" transform="translate(828.44 675.27)">Services</text><g class="cls-2"><path class="cls-3" d="M1210.26,914.29a49.66,49.66,0,1,1-49.65-49.65,49.65,49.65,0,0,1,49.65,49.65" transform="translate(-461.29 -251.22)"/></g><text class="cls-5" transform="translate(673.7 643.96)">Pipeline &amp;</text><text class="cls-5" transform="translate(678.05 659.33)">Facili<tspan class="cls-6" x="25.51" y="0">ti</tspan><tspan x="32.75" y="0">es</tspan></text><text class="cls-5" transform="translate(666.05 674.7)">Maintenance</text><text class="cls-5" transform="translate(678.99 690.07)">Services</text><g class="cls-2"><polyline class="cls-8" points="59.72 157.38 61.13 49.66 386.66 49.66"/><line class="cls-8" x1="436.31" y1="99.31" x2="436.31" y2="157.38"/><polyline class="cls-8" points="620.28 157.38 620.28 49.66 485.97 49.66"/><polyline class="cls-8" points="812.91 157.38 812.91 49.66 620.28 49.66"/><line class="cls-8" x1="233.57" y1="157.38" x2="233.57" y2="49.66"/><polyline class="cls-8" points="55.53 309.06 55.53 277.67 812.91 277.67 812.91 309.06"/><polyline class="cls-8" points="546.37 309.06 546.37 277.67 546.37 49.66"/><line class="cls-8" x1="317.33" y1="310.44" x2="317.33" y2="277.67"/><polyline class="cls-8" points="248.18 460.95 248.31 429.48 398 429.48 418.58 429.48 418.58 459.09"/><polyline class="cls-8" points="546.37 408.37 386.66 408.37 386.66 429.48"/><polyline class="cls-8" points="49.66 613.04 49.15 574.19 848.11 574.19 846.88 613.7"/><line class="cls-8" x1="198.66" y1="614.06" x2="198.66" y2="574.19"/><line class="cls-8" x1="365.55" y1="616.01" x2="365.55" y2="574.19"/><line class="cls-8" x1="532.43" y1="614.58" x2="532.43" y2="574.19"/><line class="cls-8" x1="699.32" y1="613.42" x2="699.32" y2="574.19"/><polyline class="cls-8" points="582.09 574.19 582.09 470.62 817.25 470.62 817.25 408.37"/></g></g></g></svg>